<svg width="144" height="40" viewBox="0 0 144 40" fill="none" xmlns="http://www.w3.org/2000/svg">
<path d="M38.1403 19.1604C38.0013 18.916 37.8151 18.7017 37.5924 18.53C37.3698 18.3583 37.1152 18.2327 36.8435 18.1604C35.611 17.8452 34.3344 17.7395 33.0669 17.8479C33.7966 14.6244 33.32 12.0807 32.8403 10.5979C32.6729 10.074 32.3165 9.63132 31.8404 9.35603C31.3644 9.08074 30.8028 8.9926 30.2653 9.1088C28.5969 9.48296 27.0175 10.1787 25.6153 11.1572C24.6395 9.03441 23.1641 7.17946 21.3153 5.75098C20.936 5.46515 20.4739 5.31055 19.9989 5.31055C19.5239 5.31055 19.0619 5.46515 18.6825 5.75098C16.8347 7.18009 15.36 9.0349 14.3841 11.1572C12.9814 10.1786 11.4014 9.48277 9.73252 9.1088C9.19501 8.99274 8.63355 9.08115 8.15772 9.35677C7.68189 9.63238 7.32585 10.0754 7.15908 10.5994C6.67939 12.0822 6.20283 14.626 6.93252 17.8494C5.66505 17.7411 4.38838 17.8467 3.15596 18.1619C2.88425 18.2342 2.62965 18.3599 2.407 18.5316C2.18434 18.7032 1.99809 18.9175 1.85908 19.1619C1.71299 19.4131 1.61841 19.6908 1.58085 19.979C1.54329 20.2671 1.56351 20.5598 1.64033 20.84C2.15752 22.7588 3.74971 26.4057 8.58096 29.2979C13.4122 32.19 17.7013 32.1869 19.9997 32.1869C22.2981 32.1869 26.581 32.1869 31.4153 29.2979C36.2497 26.4088 37.8388 22.7588 38.356 20.8385C38.4332 20.5585 38.454 20.2659 38.417 19.9777C38.3799 19.6896 38.2859 19.4117 38.1403 19.1604ZM26.3247 12.9525C27.6112 11.9825 29.0883 11.2956 30.6591 10.9369C30.7425 10.9199 30.8293 10.9344 30.9026 10.9777C30.9759 11.021 31.0306 11.09 31.056 11.1713C31.6716 13.0807 32.2763 17.0307 29.4013 22.0307C28.2471 24.0027 26.7679 25.7656 25.0263 27.2447C26.2263 25.1557 27.1872 22.3322 27.1872 18.6197C27.2019 16.6969 26.9107 14.784 26.3247 12.9525ZM8.94346 11.176C8.9679 11.0938 9.02215 11.0238 9.09557 10.9795C9.16899 10.9353 9.25628 10.9201 9.34033 10.9369C10.9111 11.2956 12.3883 11.9825 13.6747 12.9525C13.0887 14.784 12.7975 16.6969 12.8122 18.6197C12.8122 22.3322 13.7731 25.1588 14.97 27.24C13.2279 25.7613 11.7487 23.9984 10.595 22.026C7.72314 17.0307 8.32783 13.0807 8.94346 11.176ZM9.54346 27.6869C5.27783 25.1385 3.89502 21.9963 3.44971 20.3432C3.43803 20.3012 3.43491 20.2573 3.44055 20.2141C3.44619 20.1708 3.46046 20.1292 3.48252 20.0916C3.51632 20.0312 3.57238 19.9863 3.63877 19.9666C4.90158 19.653 6.21451 19.5961 7.49971 19.7994C7.89595 20.8973 8.38904 21.9577 8.97314 22.9682C10.5762 25.7346 12.7622 28.119 15.3794 29.9557C13.3161 29.5474 11.3407 28.7795 9.54346 27.6869ZM19.9997 30.1338C18.6435 29.165 14.6872 25.7275 14.6872 18.6197C14.6872 11.8447 18.2716 8.41036 19.8122 7.24786C19.8663 7.20729 19.9321 7.18536 19.9997 7.18536C20.0673 7.18536 20.1331 7.20729 20.1872 7.24786C21.7278 8.41036 25.3122 11.8447 25.3122 18.6197C25.3122 25.7713 21.3763 29.1666 19.9997 30.1338ZM36.5466 20.3494C36.1013 21.9963 34.7185 25.1385 30.4528 27.6932C28.6536 28.7835 26.6766 29.5488 24.6122 29.9541C27.2294 28.1174 29.4154 25.733 31.0185 22.9666C31.6052 21.9569 32.1009 20.897 32.4997 19.7994C33.7863 19.5978 35.1004 19.6567 36.3638 19.9729C36.4302 19.9926 36.4862 20.0374 36.52 20.0979C36.5416 20.1357 36.5553 20.1774 36.5604 20.2206C36.5655 20.2638 36.5618 20.3076 36.5497 20.3494H36.5466Z" fill="white"/>
<path d="M46.1 28V27.637L54.185 14.327H46.54V12.16H58.134V12.534L50.093 25.822H57.991V28H46.1ZM66.0531 28.33C64.8725 28.33 63.8348 28.0733 62.9401 27.56C62.0528 27.0393 61.3598 26.317 60.8611 25.393C60.3698 24.4617 60.1241 23.3837 60.1241 22.159C60.1241 20.861 60.3661 19.7353 60.8501 18.782C61.3415 17.8287 62.0235 17.0917 62.8961 16.571C63.7688 16.0503 64.7845 15.79 65.9431 15.79C67.1531 15.79 68.1835 16.0723 69.0341 16.637C69.8848 17.1943 70.5191 17.99 70.9371 19.024C71.3625 20.058 71.5311 21.2863 71.4431 22.709H69.1441V21.873C69.1295 20.4943 68.8655 19.475 68.3521 18.815C67.8461 18.155 67.0725 17.825 66.0311 17.825C64.8798 17.825 64.0145 18.188 63.4351 18.914C62.8558 19.64 62.5661 20.6887 62.5661 22.06C62.5661 23.3653 62.8558 24.3773 63.4351 25.096C64.0145 25.8073 64.8505 26.163 65.9431 26.163C66.6618 26.163 67.2815 26.0017 67.8021 25.679C68.3301 25.349 68.7408 24.8797 69.0341 24.271L71.2891 24.986C70.8271 26.0493 70.1268 26.8743 69.1881 27.461C68.2495 28.0403 67.2045 28.33 66.0531 28.33ZM61.8181 22.709V20.916H70.2991V22.709H61.8181ZM81.9268 28V22.159C81.9268 21.697 81.8865 21.224 81.8058 20.74C81.7325 20.2487 81.5858 19.794 81.3658 19.376C81.1532 18.958 80.8488 18.6207 80.4528 18.364C80.0642 18.1073 79.5545 17.979 78.9238 17.979C78.5132 17.979 78.1245 18.0487 77.7578 18.188C77.3912 18.32 77.0685 18.5363 76.7898 18.837C76.5185 19.1377 76.3022 19.5337 76.1408 20.025C75.9868 20.5163 75.9098 21.114 75.9098 21.818L74.4798 21.279C74.4798 20.201 74.6815 19.2513 75.0848 18.43C75.4882 17.6013 76.0675 16.956 76.8228 16.494C77.5782 16.032 78.4912 15.801 79.5618 15.801C80.3832 15.801 81.0725 15.933 81.6298 16.197C82.1872 16.461 82.6382 16.8093 82.9828 17.242C83.3348 17.6673 83.6025 18.133 83.7858 18.639C83.9692 19.145 84.0938 19.64 84.1598 20.124C84.2258 20.608 84.2588 21.0333 84.2588 21.4V28H81.9268ZM73.5778 28V16.12H75.6348V19.552H75.9098V28H73.5778ZM87.124 28V12.16H93.526C93.68 12.16 93.8707 12.1673 94.098 12.182C94.3253 12.1893 94.5417 12.2113 94.747 12.248C95.627 12.3873 96.3603 12.688 96.947 13.15C97.541 13.612 97.9847 14.195 98.278 14.899C98.5713 15.603 98.718 16.3803 98.718 17.231C98.718 18.089 98.5713 18.87 98.278 19.574C97.9847 20.278 97.541 20.861 96.947 21.323C96.3603 21.785 95.627 22.0857 94.747 22.225C94.5417 22.2543 94.3217 22.2763 94.087 22.291C93.8597 22.3057 93.6727 22.313 93.526 22.313H89.423V28H87.124ZM89.423 20.135H93.438C93.5847 20.135 93.746 20.1277 93.922 20.113C94.1053 20.0983 94.2777 20.0727 94.439 20.036C94.9083 19.926 95.286 19.7243 95.572 19.431C95.858 19.1303 96.0633 18.7857 96.188 18.397C96.3127 18.0083 96.375 17.6197 96.375 17.231C96.375 16.8423 96.3127 16.4573 96.188 16.076C96.0633 15.6873 95.858 15.3463 95.572 15.053C95.286 14.7523 94.9083 14.547 94.439 14.437C94.2777 14.393 94.1053 14.3637 93.922 14.349C93.746 14.3343 93.5847 14.327 93.438 14.327H89.423V20.135ZM103.907 28.33C103.027 28.33 102.29 28.1687 101.696 27.846C101.102 27.516 100.651 27.0833 100.343 26.548C100.042 26.0053 99.8917 25.4113 99.8917 24.766C99.8917 24.1647 99.9981 23.6367 100.211 23.182C100.423 22.7273 100.739 22.3423 101.157 22.027C101.575 21.7043 102.088 21.444 102.697 21.246C103.225 21.092 103.822 20.9563 104.49 20.839C105.157 20.7217 105.857 20.6117 106.591 20.509C107.331 20.4063 108.065 20.3037 108.791 20.201L107.955 20.663C107.969 19.7317 107.771 19.0423 107.361 18.595C106.957 18.1403 106.261 17.913 105.271 17.913C104.647 17.913 104.075 18.0597 103.555 18.353C103.034 18.639 102.671 19.1157 102.466 19.783L100.321 19.123C100.614 18.1037 101.171 17.2933 101.993 16.692C102.821 16.0907 103.921 15.79 105.293 15.79C106.356 15.79 107.28 15.9733 108.065 16.34C108.857 16.6993 109.436 17.2713 109.803 18.056C109.993 18.4447 110.111 18.8553 110.155 19.288C110.199 19.7207 110.221 20.1863 110.221 20.685V28H108.186V25.283L108.582 25.635C108.09 26.5443 107.463 27.2227 106.701 27.67C105.945 28.11 105.014 28.33 103.907 28.33ZM104.314 26.449C104.966 26.449 105.527 26.3353 105.997 26.108C106.466 25.8733 106.844 25.5763 107.13 25.217C107.416 24.8577 107.603 24.4837 107.691 24.095C107.815 23.743 107.885 23.347 107.9 22.907C107.922 22.467 107.933 22.115 107.933 21.851L108.681 22.126C107.955 22.236 107.295 22.335 106.701 22.423C106.107 22.511 105.568 22.599 105.084 22.687C104.607 22.7677 104.182 22.8667 103.808 22.984C103.492 23.094 103.21 23.226 102.961 23.38C102.719 23.534 102.524 23.721 102.378 23.941C102.238 24.161 102.169 24.4287 102.169 24.744C102.169 25.052 102.246 25.338 102.4 25.602C102.554 25.8587 102.788 26.064 103.104 26.218C103.419 26.372 103.822 26.449 104.314 26.449ZM121.415 28V22.159C121.415 21.697 121.375 21.224 121.294 20.74C121.221 20.2487 121.074 19.794 120.854 19.376C120.641 18.958 120.337 18.6207 119.941 18.364C119.552 18.1073 119.043 17.979 118.412 17.979C118.001 17.979 117.613 18.0487 117.246 18.188C116.879 18.32 116.557 18.5363 116.278 18.837C116.007 19.1377 115.79 19.5337 115.629 20.025C115.475 20.5163 115.398 21.114 115.398 21.818L113.968 21.279C113.968 20.201 114.17 19.2513 114.573 18.43C114.976 17.6013 115.556 16.956 116.311 16.494C117.066 16.032 117.979 15.801 119.05 15.801C119.871 15.801 120.561 15.933 121.118 16.197C121.675 16.461 122.126 16.8093 122.471 17.242C122.823 17.6673 123.091 18.133 123.274 18.639C123.457 19.145 123.582 19.64 123.648 20.124C123.714 20.608 123.747 21.0333 123.747 21.4V28H121.415ZM113.066 28V16.12H115.123V19.552H115.398V28H113.066ZM131.731 28.33C130.55 28.33 129.513 28.0733 128.618 27.56C127.731 27.0393 127.038 26.317 126.539 25.393C126.048 24.4617 125.802 23.3837 125.802 22.159C125.802 20.861 126.044 19.7353 126.528 18.782C127.019 17.8287 127.701 17.0917 128.574 16.571C129.447 16.0503 130.462 15.79 131.621 15.79C132.831 15.79 133.861 16.0723 134.712 16.637C135.563 17.1943 136.197 17.99 136.615 19.024C137.04 20.058 137.209 21.2863 137.121 22.709H134.822V21.873C134.807 20.4943 134.543 19.475 134.03 18.815C133.524 18.155 132.75 17.825 131.709 17.825C130.558 17.825 129.692 18.188 129.113 18.914C128.534 19.64 128.244 20.6887 128.244 22.06C128.244 23.3653 128.534 24.3773 129.113 25.096C129.692 25.8073 130.528 26.163 131.621 26.163C132.34 26.163 132.959 26.0017 133.48 25.679C134.008 25.349 134.419 24.8797 134.712 24.271L136.967 24.986C136.505 26.0493 135.805 26.8743 134.866 27.461C133.927 28.0403 132.882 28.33 131.731 28.33ZM127.496 22.709V20.916H135.977V22.709H127.496ZM139.809 28V11.83H142.108V28H139.809Z" fill="white"/>
</svg>
