<svg width="40" height="40" viewBox="0 0 40 40" fill="none" xmlns="http://www.w3.org/2000/svg">
<path d="M38.1403 19.1604C38.0013 18.916 37.8151 18.7017 37.5924 18.53C37.3698 18.3583 37.1152 18.2327 36.8435 18.1604C35.611 17.8452 34.3344 17.7395 33.0669 17.8479C33.7966 14.6244 33.32 12.0807 32.8403 10.5979C32.6729 10.074 32.3165 9.63132 31.8404 9.35603C31.3644 9.08074 30.8028 8.9926 30.2653 9.1088C28.5969 9.48296 27.0175 10.1787 25.6153 11.1572C24.6395 9.03441 23.1641 7.17946 21.3153 5.75098C20.936 5.46515 20.4739 5.31055 19.9989 5.31055C19.5239 5.31055 19.0619 5.46515 18.6825 5.75098C16.8347 7.18009 15.36 9.0349 14.3841 11.1572C12.9814 10.1786 11.4014 9.48277 9.73252 9.1088C9.19501 8.99274 8.63355 9.08115 8.15772 9.35677C7.68189 9.63238 7.32585 10.0754 7.15908 10.5994C6.67939 12.0822 6.20283 14.626 6.93252 17.8494C5.66505 17.7411 4.38838 17.8467 3.15596 18.1619C2.88425 18.2342 2.62965 18.3599 2.407 18.5316C2.18434 18.7032 1.99809 18.9175 1.85908 19.1619C1.71299 19.4131 1.61841 19.6908 1.58085 19.979C1.54329 20.2671 1.56351 20.5598 1.64033 20.84C2.15752 22.7588 3.74971 26.4057 8.58096 29.2979C13.4122 32.19 17.7013 32.1869 19.9997 32.1869C22.2981 32.1869 26.581 32.1869 31.4153 29.2979C36.2497 26.4088 37.8388 22.7588 38.356 20.8385C38.4332 20.5585 38.454 20.2659 38.417 19.9777C38.3799 19.6896 38.2859 19.4117 38.1403 19.1604ZM26.3247 12.9525C27.6112 11.9825 29.0883 11.2956 30.6591 10.9369C30.7425 10.9199 30.8293 10.9344 30.9026 10.9777C30.9759 11.021 31.0306 11.09 31.056 11.1713C31.6716 13.0807 32.2763 17.0307 29.4013 22.0307C28.2471 24.0027 26.7679 25.7656 25.0263 27.2447C26.2263 25.1557 27.1872 22.3322 27.1872 18.6197C27.2019 16.6969 26.9107 14.784 26.3247 12.9525ZM8.94346 11.176C8.9679 11.0938 9.02215 11.0238 9.09557 10.9795C9.16899 10.9353 9.25628 10.9201 9.34033 10.9369C10.9111 11.2956 12.3883 11.9825 13.6747 12.9525C13.0887 14.784 12.7975 16.6969 12.8122 18.6197C12.8122 22.3322 13.7731 25.1588 14.97 27.24C13.2279 25.7613 11.7487 23.9984 10.595 22.026C7.72314 17.0307 8.32783 13.0807 8.94346 11.176ZM9.54346 27.6869C5.27783 25.1385 3.89502 21.9963 3.44971 20.3432C3.43803 20.3012 3.43491 20.2573 3.44055 20.2141C3.44619 20.1708 3.46046 20.1292 3.48252 20.0916C3.51632 20.0312 3.57238 19.9863 3.63877 19.9666C4.90158 19.653 6.21451 19.5961 7.49971 19.7994C7.89595 20.8973 8.38904 21.9577 8.97314 22.9682C10.5762 25.7346 12.7622 28.119 15.3794 29.9557C13.3161 29.5474 11.3407 28.7795 9.54346 27.6869ZM19.9997 30.1338C18.6435 29.165 14.6872 25.7275 14.6872 18.6197C14.6872 11.8447 18.2716 8.41036 19.8122 7.24786C19.8663 7.20729 19.9321 7.18536 19.9997 7.18536C20.0673 7.18536 20.1331 7.20729 20.1872 7.24786C21.7278 8.41036 25.3122 11.8447 25.3122 18.6197C25.3122 25.7713 21.3763 29.1666 19.9997 30.1338ZM36.5466 20.3494C36.1013 21.9963 34.7185 25.1385 30.4528 27.6932C28.6536 28.7835 26.6766 29.5488 24.6122 29.9541C27.2294 28.1174 29.4154 25.733 31.0185 22.9666C31.6052 21.9569 32.1009 20.897 32.4997 19.7994C33.7863 19.5978 35.1004 19.6567 36.3638 19.9729C36.4302 19.9926 36.4862 20.0374 36.52 20.0979C36.5416 20.1357 36.5553 20.1774 36.5604 20.2206C36.5655 20.2638 36.5618 20.3076 36.5497 20.3494H36.5466Z" fill="white"/>
</svg>
