<svg width="353" height="126" viewBox="0 0 353 126" fill="none" xmlns="http://www.w3.org/2000/svg">
<rect x="0.614335" y="86.6433" width="56.4076" height="25.3542" rx="4.5" transform="rotate(-11.397 0.614335 86.6433)" stroke="#0E616C"/>
<rect x="57.5889" y="47.7351" width="56.4076" height="25.3542" rx="4.5" transform="rotate(-11.397 57.5889 47.7351)" stroke="#0E616C"/>
<rect x="64.5889" y="99.7351" width="56.4076" height="25.3542" rx="4.5" transform="rotate(-11.397 64.5889 99.7351)" stroke="#0E616C"/>
<rect x="118.589" y="62.7351" width="56.4076" height="25.3542" rx="4.5" transform="rotate(-11.397 118.589 62.7351)" stroke="#0E616C"/>
<rect x="174.589" y="78.7351" width="56.4076" height="25.3542" rx="4.5" transform="rotate(-11.397 174.589 78.7351)" stroke="#0E616C"/>
<rect x="235.589" y="92.7351" width="56.4076" height="25.3542" rx="4.5" transform="rotate(-11.397 235.589 92.7351)" stroke="#0E616C"/>
<rect x="291.589" y="55.7351" width="56.4076" height="25.3542" rx="4.5" transform="rotate(-11.397 291.589 55.7351)" stroke="#0E616C"/>
<rect x="233.589" y="37.7351" width="56.4076" height="25.3542" rx="4.5" transform="rotate(-11.397 233.589 37.7351)" stroke="#0E616C"/>
<rect x="174.589" y="23.7351" width="56.4076" height="25.3542" rx="4.5" transform="rotate(-11.397 174.589 23.7351)" stroke="#0E616C"/>
<rect x="113.589" y="11.7351" width="56.4076" height="25.3542" rx="4.5" transform="rotate(-11.397 113.589 11.7351)" stroke="#0E616C"/>
</svg>
